<?xml version="1.0" encoding="UTF-8"?>
<svg width="149.17px" height="172.24px" enable-background="new 0 0 149.167 172.243" version="1.1" viewBox="0 0 149.17 172.24" xml:space="preserve" xmlns="http://www.w3.org/2000/svg" xmlns:cc="http://creativecommons.org/ns#" xmlns:dc="http://purl.org/dc/elements/1.1/" xmlns:rdf="http://www.w3.org/1999/02/22-rdf-syntax-ns#"><metadata><rdf:RDF><cc:Work rdf:about=""><dc:format>image/svg+xml</dc:format><dc:type rdf:resource="http://purl.org/dc/dcmitype/StillImage"/><dc:title/></cc:Work></rdf:RDF></metadata>
<polygon points="149.17 129.18 74.583 172.24 0 129.18 0 43.061 74.583 0 149.17 43.061" fill="#585858"/>

<g transform="matrix(.20092 0 0 .20092 17.855 34.852)" fill="#fff"><g fill="#fff"><path d="m511.61 175.96-26.241-126.04c-0.997-4.79-3.857-8.987-7.948-11.668-4.093-2.682-9.085-3.63-13.87-2.632l-56.581 11.78c-9.973 2.076-16.375 11.846-14.3 21.82l0.77 3.697-270.51 56.318c-4.79 0.999-8.987 3.857-11.669 7.949-2.682 4.091-3.628 9.082-2.63 13.87l0.026 0.125-79.667 16.587c-4.019-2.799-9.126-4.016-14.295-2.943-9.973 2.076-16.375 11.846-14.3 21.82l10.791 51.832 1.181 5.673c1.813 8.705 9.485 14.689 18.041 14.689 1.246 0 2.511-0.128 3.778-0.39 5.174-1.077 9.371-4.233 11.937-8.404l79.665-16.586 0.026 0.127c1.813 8.705 9.485 14.69 18.041 14.69 1.246 0 2.511-0.128 3.778-0.39l78.738-16.393c3.507 12.62 11.165 23.528 21.419 31.139l-61.702 189.99c-3.147 9.689 2.157 20.096 11.848 23.241 9.69 3.146 20.095-2.158 23.241-11.847l13.831-42.59h94.658l13.831 42.59c2.532 7.798 9.763 12.754 17.541 12.754 1.888 0 3.809-0.291 5.701-0.906 9.689-3.147 14.993-13.553 11.847-23.241l-61.698-189.99c14.274-10.594 23.544-27.569 23.544-46.671 0-2.747-0.205-5.447-0.577-8.094l78.286-16.298 0.77 3.697c0.997 4.79 3.857 8.987 7.948 11.668 3.028 1.984 6.546 3.018 10.112 3.018 1.253 0 2.512-0.128 3.759-0.386l56.582-11.78c9.974-2.077 16.377-11.846 14.3-21.82zm-468.07 36.931-2.091-10.04 74.724-15.558 2.091 10.041zm274.14 171.64h-70.696l35.348-108.85zm-56.549-168.57c0-11.691 9.511-21.202 21.201-21.202s21.201 9.511 21.201 21.202c0 11.69-9.511 21.201-21.201 21.201s-21.201-9.511-21.201-21.201zm61.148-42.121c-10.421-9.888-24.482-15.975-39.947-15.975-23.995 0-44.637 14.624-53.487 35.427l-70.801 14.715-9.757-46.284v-4e-3 -4e-3l0.095-0.123 252.51-52.559 9.693 46.414zm129.14-4.154-0.612-3.872v-0.176h-0.175l-17.042-82.179v-5e-3 -4e-3l-0.909-3.692 20.393-4.261 18.765 89.927z" fill="#fff"/></g></g></svg>
